<?xml version="1.0" encoding="utf-8"?>
<!-- Generator: Adobe Illustrator 22.0.1, SVG Export Plug-In . SVG Version: 6.00 Build 0)  -->
<svg version="1.1" id="Capa_1" xmlns="http://www.w3.org/2000/svg" xmlns:xlink="http://www.w3.org/1999/xlink" x="0px" y="0px"
	 viewBox="0 0 38.8 20" style="enable-background:new 0 0 38.8 20;" xml:space="preserve">
<style type="text/css">
	.st0{fill:#B5BB00;}
	.st1{fill:#919B9B;}
	.st2{fill:#FFFFFF;}
</style>
<g>
	<g>
		<path class="st0" d="M28.7,19.9c5.5,0,10-4.5,10-10c0-5.5-4.5-10-10-10c-5.5,0-10,4.5-10,10C18.7,15.5,23.2,19.9,28.7,19.9"/>
		<g>
			<g>
				<path class="st1" d="M1.9,9.9C1.7,9.9,1.5,9.8,1.1,9.8c-0.3,0-0.5-0.1-0.6-0.2C0.4,9.5,0.3,9.4,0.3,9.2c0-0.2,0.1-0.3,0.2-0.4
					c0.1-0.1,0.3-0.2,0.6-0.2c0.2,0,0.4,0.1,0.6,0.2C1.8,9,1.9,9.1,1.9,9.3c0,0,0,0,0,0l0,0.1v0C1.9,9.7,2,9.7,2,9.7
					c0,0,0.1,0,0.1-0.2l0-0.1c0,0,0-0.1,0-0.1c0,0,0-0.1,0-0.3l0-0.2c0,0,0-0.1,0-0.1c0,0,0-0.1,0-0.1c0-0.1,0-0.1,0-0.2
					c0-0.1-0.1-0.2-0.1-0.2C2,8.4,1.9,8.5,1.9,8.6v0.1C1.7,8.5,1.4,8.4,1.1,8.4c-0.3,0-0.5,0.1-0.7,0.3C0.1,8.8,0,9,0,9.3
					c0,0.1,0,0.3,0.1,0.4c0.1,0.1,0.2,0.2,0.3,0.3C0.6,9.9,0.8,10,1.2,10c0.3,0,0.5,0.1,0.7,0.2C2,10.3,2,10.4,2,10.6
					c0,0.2-0.1,0.4-0.2,0.5c-0.2,0.1-0.4,0.2-0.6,0.2c-0.3,0-0.5-0.1-0.7-0.2c-0.2-0.1-0.3-0.3-0.3-0.6c0-0.1,0-0.1,0-0.2
					c0,0,0-0.1,0-0.1c0,0,0-0.1,0-0.1C0.2,10,0.1,10,0.1,10c0,0-0.1,0-0.1,0.2c0,0,0,0,0,0.2c0,0.1,0,0.2,0,0.4c0,0.2,0,0.3,0,0.4
					c0,0.1,0,0.2,0,0.2c0,0.2,0.1,0.2,0.1,0.2c0,0,0.1,0,0.1-0.1l0-0.1h0l0,0c0,0,0-0.1,0-0.2c0.2,0.2,0.5,0.4,0.9,0.4
					c0.3,0,0.6-0.1,0.8-0.3c0.2-0.2,0.3-0.4,0.3-0.7C2.3,10.3,2.2,10,1.9,9.9"/>
			</g>
			<g>
				<path class="st1" d="M8.4,11.2H8.1c-0.2,0-0.2-0.1-0.2-0.1c0-0.1,0-0.3,0-0.8V9.7c0-0.1,0-0.3,0-0.4c0-0.1,0-0.2,0-0.3
					C7.7,8.8,7.6,8.6,7.4,8.5C7.3,8.4,7,8.4,6.8,8.4C6.5,8.4,6.2,8.5,6,8.7C5.9,8.7,5.9,8.8,5.8,8.9c0-0.1-0.1-0.2-0.2-0.3
					C5.5,8.5,5.2,8.4,4.9,8.4c-0.4,0-0.7,0.1-0.9,0.4V8.6c0-0.2-0.1-0.2-0.2-0.2c0,0-0.1,0-0.1,0c0,0-0.1,0-0.1,0H3.3l-0.2,0h0
					C3,8.4,3,8.5,3,8.6c0,0,0,0.1,0.2,0.1l0.2,0c0.1,0,0.2,0,0.2,0c0.1,0,0.1,0,0.1,0c0,0,0.1,0,0.1,0.3v1.3c0,0.6,0,0.7,0,0.8
					c0,0,0,0.1-0.2,0.1H3.1C3,11.2,3,11.3,3,11.3c0,0,0,0.1,0.2,0.1l0.5,0H4l0.5,0h0c0.2,0,0.2-0.1,0.2-0.1c0,0,0-0.1-0.2-0.1H4.2
					C4,11.2,4,11.1,4,11.1c0-0.1,0-0.2,0-0.8V9.6c0-0.3,0.1-0.5,0.2-0.7c0.2-0.2,0.4-0.3,0.7-0.3c0.3,0,0.5,0.1,0.6,0.3
					C5.6,9,5.6,9.1,5.6,9.2c0,0.1,0,0.2,0,0.4v0.7c0,0.6,0,0.7,0,0.8c0,0,0,0.1-0.2,0.1H5.1c-0.2,0-0.2,0.1-0.2,0.1
					c0,0,0,0.1,0.2,0.1l0.5,0H6l0.4,0h0c0.2,0,0.2-0.1,0.2-0.1c0,0,0-0.1-0.2-0.1H6.2c-0.2,0-0.2-0.1-0.2-0.1c0-0.1,0-0.2,0-0.8V9.8
					C5.9,9.4,6,9.1,6,9c0.2-0.3,0.4-0.4,0.7-0.4c0.3,0,0.5,0.1,0.7,0.3C7.5,9,7.5,9,7.5,9.1c0,0.1,0,0.3,0,0.5v0.6
					c0,0.6,0,0.7,0,0.8c0,0,0,0.1-0.2,0.1H7c-0.2,0-0.2,0.1-0.2,0.1c0,0,0,0.1,0.2,0.1l0.5,0l0.4,0l0.2,0l0.2,0h0
					c0.2,0,0.2-0.1,0.2-0.1C8.5,11.3,8.5,11.2,8.4,11.2"/>
			</g>
			<g>
				<path class="st1" d="M10.7,11.3c-0.3,0-0.5-0.1-0.7-0.3c-0.1-0.1-0.2-0.3-0.2-0.5c0-0.1,0-0.3,0-0.6c0-0.3,0-0.5,0.1-0.6
					C9.8,9.2,9.9,9,10,8.9c0.2-0.2,0.4-0.3,0.7-0.3c0.3,0,0.6,0.1,0.7,0.3c0.2,0.2,0.3,0.6,0.3,1c0,0.4-0.1,0.7-0.3,1
					C11.2,11.1,11,11.3,10.7,11.3 M11.6,8.8c-0.2-0.3-0.5-0.4-0.9-0.4c-0.4,0-0.8,0.2-1,0.5V8.6c0-0.1-0.1-0.2-0.2-0.2
					c0,0-0.1,0-0.1,0c-0.1,0-0.1,0-0.1,0l-0.2,0l-0.2,0h0c-0.1,0-0.2,0.1-0.2,0.1c0,0,0,0.1,0.2,0.1h0l0.2,0c0.1,0,0.2,0,0.2,0
					c0.1,0,0.1,0,0.1,0c0,0,0.1,0,0.1,0.3v2.4c0,0.6,0,0.7,0,0.8c0,0,0,0.1-0.2,0.1c0,0-0.1,0-0.1,0c-0.1,0-0.1,0-0.1,0c0,0,0,0,0,0
					c-0.2,0-0.2,0.1-0.2,0.1c0,0,0,0.1,0.2,0.1l0.2,0H10l0.2,0l0,0c0.2,0,0.2-0.1,0.2-0.1c0,0,0-0.1-0.2-0.1c0,0,0,0,0,0
					c0,0-0.1,0-0.1,0c-0.1,0-0.1,0-0.1,0c-0.2,0-0.2-0.1-0.2-0.1c0-0.1,0-0.3,0-0.8v-0.3c0.2,0.3,0.5,0.4,0.9,0.4
					c0.4,0,0.7-0.2,1-0.5c0.2-0.3,0.4-0.7,0.4-1.2C12,9.4,11.9,9.1,11.6,8.8"/>
			</g>
			<g>
				<path class="st1" d="M14.2,11.2h-0.3c-0.2,0-0.2-0.1-0.2-0.1c0-0.1,0-0.3,0-0.8V7.5c0-0.1,0-0.1,0-0.1c0,0-0.1-0.1-0.2-0.1h-0.7
					c-0.1,0-0.2,0.1-0.2,0.1c0,0,0,0.1,0.2,0.1c0,0,0,0,0.2,0c0.1,0,0.1,0,0.2,0c0.1,0,0.1,0,0.1,0.1c0,0,0,0.2,0,0.6v2
					c0,0.6,0,0.7,0,0.8c0,0,0,0.1-0.2,0.1h-0.3c-0.2,0-0.2,0.1-0.2,0.1c0,0,0,0.1,0.2,0.1l0.5,0l0.4,0l0.2,0l0.2,0h0
					c0.2,0,0.2-0.1,0.2-0.1C14.3,11.3,14.3,11.2,14.2,11.2"/>
			</g>
			<g>
				<path class="st1" d="M15.6,8.8c0.2-0.1,0.4-0.2,0.7-0.2c0.3,0,0.6,0.1,0.8,0.4c0.2,0.2,0.2,0.4,0.2,0.7c0,0,0,0,0,0h-2
					c-0.1,0-0.1,0-0.1,0c0-0.1,0-0.1,0-0.2C15.3,9.2,15.4,9,15.6,8.8 M17.4,10.3c0,0-0.1,0-0.1,0.1c0,0.1,0,0.1,0,0.1
					c0,0.1-0.1,0.2-0.2,0.3c-0.2,0.2-0.5,0.4-0.8,0.4c-0.3,0-0.6-0.1-0.8-0.3c-0.2-0.2-0.3-0.5-0.3-0.9c0,0,0-0.1,0-0.1
					c0,0,0,0,0.1,0h2.1c0.1,0,0.2,0,0.2,0c0.1,0,0.1-0.1,0.1-0.2c0-0.4-0.1-0.7-0.4-0.9c-0.2-0.3-0.6-0.4-0.9-0.4
					c-0.4,0-0.8,0.2-1,0.4C15,9.1,14.9,9.5,14.9,10c0,0.5,0.1,0.8,0.4,1.1c0.3,0.3,0.6,0.4,1,0.4c0.3,0,0.5-0.1,0.7-0.2
					c0.2-0.1,0.4-0.3,0.5-0.6c0-0.1,0.1-0.2,0.1-0.3C17.6,10.3,17.5,10.3,17.4,10.3"/>
			</g>
			<circle class="st0" cx="3.8" cy="7" r="0.6"/>
		</g>
	</g>
	<g>
		<g>
			<path class="st2" d="M21.9,8.8c0.2,0,0.4,0,0.5,0.1v-1h0.3v2.4c0,0.2,0,0.3,0,0.4c0,0.1,0,0.2,0.1,0.3h-0.3c0,0,0,0,0-0.1
				c0,0,0-0.1,0-0.1c-0.1,0.1-0.2,0.1-0.3,0.2c-0.1,0-0.2,0.1-0.4,0.1c-0.3,0-0.5-0.1-0.6-0.3C21,10.5,21,10.2,21,9.9
				c0-0.3,0.1-0.6,0.3-0.8C21.4,8.9,21.6,8.8,21.9,8.8z M21.9,10.7c0.1,0,0.2,0,0.3,0c0.1,0,0.2-0.1,0.3-0.2V9.1
				C22.3,9.1,22.2,9,22,9c-0.2,0-0.4,0.1-0.5,0.3c-0.1,0.2-0.2,0.4-0.2,0.6c0,0.2,0.1,0.4,0.2,0.6C21.6,10.6,21.7,10.7,21.9,10.7z"
				/>
			<path class="st2" d="M23.7,8.1c0,0,0-0.1,0.1-0.1c0,0,0.1-0.1,0.1-0.1C23.9,7.9,24,8,24,8c0,0,0.1,0.1,0.1,0.1
				c0,0.1,0,0.1-0.1,0.1c0,0-0.1,0.1-0.1,0.1c0,0-0.1,0-0.1-0.1C23.7,8.2,23.7,8.2,23.7,8.1z M23.7,8.8H24v2.1h-0.3V8.8z"/>
			<path class="st2" d="M26.7,9.1c-0.1,0-0.1,0-0.1,0c0,0-0.1,0-0.1,0c0,0,0.1,0.1,0.1,0.2c0,0.1,0,0.1,0,0.2c0,0.1,0,0.2-0.1,0.3
				c0,0.1-0.1,0.2-0.2,0.2c-0.1,0.1-0.2,0.1-0.3,0.1c-0.1,0-0.2,0-0.3,0c-0.1,0-0.2,0-0.3,0c0,0,0,0-0.1,0c0,0-0.1,0-0.1,0
				c0,0-0.1,0-0.1,0.1c0,0,0,0.1,0,0.1c0,0,0,0.1,0.1,0.1c0,0,0.1,0,0.2,0.1c0.1,0,0.2,0,0.4,0.1c0.2,0,0.3,0.1,0.4,0.1
				c0.1,0,0.2,0.1,0.3,0.1c0.1,0,0.1,0.1,0.2,0.2c0,0.1,0.1,0.1,0.1,0.2c0,0.1,0,0.2-0.1,0.2c0,0.1-0.1,0.1-0.1,0.2
				c-0.1,0-0.1,0.1-0.2,0.1c-0.1,0-0.2,0.1-0.2,0.1c-0.1,0-0.2,0-0.3,0c-0.1,0-0.2,0-0.2,0c-0.1,0-0.2,0-0.3,0
				c-0.1,0-0.2-0.1-0.3-0.1c-0.1,0-0.1-0.1-0.2-0.2c0-0.1-0.1-0.1-0.1-0.2c0,0,0-0.1,0-0.1c0,0,0-0.1,0.1-0.1c0,0,0.1-0.1,0.1-0.1
				c0,0,0.1-0.1,0.1-0.1c0,0-0.1,0-0.1-0.1c0,0-0.1,0-0.1-0.1c0,0,0-0.1-0.1-0.1c0,0,0-0.1,0-0.1c0,0,0-0.1,0-0.1
				c0,0,0.1-0.1,0.1-0.1c0,0,0.1-0.1,0.1-0.1c0,0,0.1,0,0.1,0C25.1,10.1,25,10,25,9.9c-0.1-0.1-0.1-0.2-0.1-0.4c0-0.1,0-0.2,0.1-0.3
				C25,9.1,25.1,9,25.2,9c0.1-0.1,0.2-0.1,0.3-0.1c0.1,0,0.2,0,0.3,0c0.1,0,0.2,0,0.3,0c0.1,0,0.2,0.1,0.3,0.1
				c0.1,0,0.2-0.1,0.3-0.1c0.1,0,0.2,0,0.3,0l0,0.3L26.7,9.1z M25.3,10.8c-0.1,0.1-0.1,0.1-0.1,0.2c0,0.1,0,0.1,0,0.2
				c0,0.1,0,0.1,0.1,0.2c0,0.1,0.1,0.1,0.1,0.1c0.1,0,0.1,0.1,0.2,0.1c0.1,0,0.1,0,0.2,0c0,0,0.1,0,0.1,0c0.1,0,0.1,0,0.2,0
				c0.1,0,0.1,0,0.2,0c0.1,0,0.1,0,0.1-0.1c0,0,0.1-0.1,0.1-0.1c0,0,0-0.1,0-0.1c0,0,0-0.1,0-0.1c0,0-0.1-0.1-0.1-0.1
				c0,0-0.1-0.1-0.2-0.1c-0.1,0-0.2,0-0.3-0.1c-0.1,0-0.2,0-0.2,0C25.4,10.9,25.4,10.9,25.3,10.8C25.3,10.9,25.3,10.9,25.3,10.8z
				 M25.7,10c0.1,0,0.2,0,0.2,0c0.1,0,0.1-0.1,0.1-0.1c0,0,0.1-0.1,0.1-0.2c0-0.1,0-0.1,0-0.2c0-0.1,0-0.1,0-0.2
				c0-0.1,0-0.1-0.1-0.2c0,0-0.1-0.1-0.1-0.1c-0.1,0-0.1,0-0.2,0c-0.1,0-0.2,0-0.2,0c-0.1,0-0.1,0.1-0.2,0.1c0,0-0.1,0.1-0.1,0.2
				c0,0.1,0,0.1,0,0.2c0,0.1,0,0.1,0,0.2c0,0.1,0.1,0.1,0.1,0.2c0,0,0.1,0.1,0.2,0.1C25.6,10,25.6,10,25.7,10z"/>
			<path class="st2" d="M27.3,8.1c0,0,0-0.1,0.1-0.1c0,0,0.1-0.1,0.1-0.1c0.1,0,0.1,0,0.1,0.1c0,0,0.1,0.1,0.1,0.1
				c0,0.1,0,0.1-0.1,0.1s-0.1,0.1-0.1,0.1c0,0-0.1,0-0.1-0.1C27.3,8.2,27.3,8.2,27.3,8.1z M27.3,8.8h0.3v2.1h-0.3V8.8z"/>
			<path class="st2" d="M28.4,8.8h0.3V8.3H29v0.5h0.5l0,0.3H29v1.2c0,0.1,0,0.2,0.1,0.3c0,0.1,0.1,0.1,0.2,0.1c0,0,0.1,0,0.2,0
				c0.1,0,0.1,0,0.1,0l0,0.3c0,0-0.1,0-0.2,0c-0.1,0-0.2,0-0.2,0c-0.2,0-0.3,0-0.4-0.1c-0.1-0.1-0.1-0.2-0.1-0.5V9.1h-0.3V8.8z"/>
			<path class="st2" d="M30.5,9.1c0,0,0.1-0.1,0.2-0.1c0.1,0,0.1-0.1,0.2-0.1c0.1,0,0.1,0,0.2-0.1c0.1,0,0.2,0,0.2,0
				c0.2,0,0.4,0.1,0.5,0.2C32,9,32,9.2,32,9.4v0.9c0,0.1,0,0.1,0,0.2c0,0,0,0.1,0,0.1c0,0,0,0,0.1,0.1c0,0,0.1,0,0.1,0
				c0,0,0.1,0,0.1,0l0,0.1c0,0-0.1,0.1-0.2,0.1c-0.1,0-0.1,0-0.2,0c-0.1,0-0.1,0-0.2-0.1c-0.1-0.1-0.1-0.1-0.1-0.3
				c-0.1,0.1-0.2,0.2-0.4,0.2C31.3,10.9,31.1,11,31,11c-0.1,0-0.2,0-0.2,0c-0.1,0-0.1-0.1-0.2-0.1c-0.1,0-0.1-0.1-0.1-0.2
				c0-0.1,0-0.1,0-0.2c0-0.1,0-0.2,0.1-0.3c0-0.1,0.1-0.2,0.2-0.2c0.1-0.1,0.2-0.1,0.2-0.1c0.1,0,0.2-0.1,0.3-0.1c0.1,0,0.2,0,0.3,0
				c0.1,0,0.2,0,0.3,0V9.4c0-0.1,0-0.2-0.1-0.3C31.6,9.1,31.5,9,31.3,9c-0.1,0-0.1,0-0.2,0c-0.1,0-0.1,0-0.2,0.1
				c-0.1,0-0.1,0.1-0.2,0.1c0,0-0.1,0.1-0.1,0.1L30.5,9.1z M31.7,9.8c-0.2,0-0.3,0-0.5,0C31.2,9.9,31,9.9,31,10
				c-0.1,0-0.1,0.1-0.2,0.2c0,0.1-0.1,0.1-0.1,0.2c0,0.1,0,0.2,0.1,0.2c0.1,0.1,0.2,0.1,0.3,0.1c0.1,0,0.1,0,0.2,0
				c0.1,0,0.1,0,0.2-0.1c0.1,0,0.1,0,0.2-0.1c0.1,0,0.1-0.1,0.1-0.1V9.8z"/>
			<path class="st2" d="M33,7.9h0.3v2.6c0,0.1,0,0.1,0,0.2c0,0,0.1,0,0.2,0c0,0,0,0,0,0c0,0,0,0,0.1,0l0,0.2c0,0,0,0-0.1,0
				c0,0-0.1,0-0.1,0c0,0-0.1,0-0.1,0c0,0-0.1,0-0.1,0c-0.1,0-0.2,0-0.2-0.1C33,10.8,33,10.7,33,10.6V7.9z"/>
			<path class="st2" d="M34.5,11.4h2v0.2h-2V11.4z"/>
		</g>
	</g>
</g>
</svg>
